<svg version="1.1" xmlns="http://www.w3.org/2000/svg" viewBox="0 0 658 404.61081384078454" width="658" height="404.61081384078454">
  <!-- svg-source:excalidraw -->
  
  <defs>
    <style class="style-fonts">
      @font-face {
        font-family: "Virgil";
        src: url("https://excalidraw.com/Virgil.woff2");
      }
      @font-face {
        font-family: "Cascadia";
        src: url("https://excalidraw.com/Cascadia.woff2");
      }
      @font-face {
        font-family: "Assistant";
        src: url("https://excalidraw.com/Assistant-Regular.woff2");
      }
    </style>
    
  </defs>
  <rect x="0" y="0" width="658" height="404.61081384078454" fill="#ffffff"></rect><g stroke-linecap="round" transform="translate(10 37.61081384078457) rotate(0 319 178.5)"><path d="M32 0 C253.48 -0.51, 474.23 -0.99, 606 0 M32 0 C180.71 -0.4, 329.8 -0.58, 606 0 M606 0 C628.43 1.14, 638.52 10.06, 638 32 M606 0 C627.62 1.63, 637.2 8.59, 638 32 M638 32 C638.93 99.85, 638.26 165.74, 638 325 M638 32 C636.5 93.33, 637.18 154.38, 638 325 M638 325 C639.92 345.13, 627.83 358.96, 606 357 M638 325 C638.21 345.53, 627.6 357.65, 606 357 M606 357 C453.65 354.95, 301.86 354.36, 32 357 M606 357 C438.09 355.84, 271.05 356.37, 32 357 M32 357 C9.88 358.62, -1.19 345.86, 0 325 M32 357 C8.94 356.44, 1.03 348.52, 0 325 M0 325 C2.05 243.85, 2.44 159.69, 0 32 M0 325 C-0.13 259.11, -0.19 192.39, 0 32 M0 32 C1.8 12.24, 11.94 0.29, 32 0 M0 32 C-1.14 8.87, 8.61 0.86, 32 0" stroke="#1e1e1e" stroke-width="2" fill="none"></path></g><g transform="translate(560.5012248095622 10) rotate(0 20.999977111816406 12.5)"><text x="0" y="0" font-family="Virgil, Segoe UI Emoji" font-size="20px" fill="#1e1e1e" text-anchor="start" style="white-space: pre;" direction="ltr" dominant-baseline="text-before-edge">body</text></g><g stroke-linecap="round" transform="translate(29.813117135854554 60.29096387816534) rotate(0 302.54545454545456 34.44363636363636)"><path d="M17.22 0 C233.16 2.9, 448.27 1.42, 587.87 0 M17.22 0 C159.54 0.12, 302.34 0.03, 587.87 0 M587.87 0 C601.21 -0.18, 606.23 4.89, 605.09 17.22 M587.87 0 C597.12 -1.08, 602.9 6.7, 605.09 17.22 M605.09 17.22 C606.39 25.71, 604.89 31.58, 605.09 51.67 M605.09 17.22 C604.48 24.86, 605.84 32.91, 605.09 51.67 M605.09 51.67 C606.51 63.74, 600.23 69.04, 587.87 68.89 M605.09 51.67 C606.27 62.43, 599.61 69.6, 587.87 68.89 M587.87 68.89 C406.97 67.31, 227.36 68.48, 17.22 68.89 M587.87 68.89 C430.28 70.6, 272.06 69.94, 17.22 68.89 M17.22 68.89 C6.51 70.78, -1.39 63.29, 0 51.67 M17.22 68.89 C5.62 66.69, 1.23 64.26, 0 51.67 M0 51.67 C1.04 40.04, -1.55 32.63, 0 17.22 M0 51.67 C0.06 41.97, -0.56 32.33, 0 17.22 M0 17.22 C0.25 7.52, 4.57 1.26, 17.22 0 M0 17.22 C-1.85 4.98, 6.46 -0.04, 17.22 0" stroke="#1971c2" stroke-width="2" fill="none"></path></g><g transform="translate(43.89651192531204 40.617586913955506) rotate(0 59.407958984375 10)"><text x="0" y="0" font-family="Virgil, Segoe UI Emoji" font-size="16px" fill="#1971c2" text-anchor="start" style="white-space: pre;" direction="ltr" dominant-baseline="text-before-edge">.welcome-banner</text></g><g stroke-linecap="round" transform="translate(46 75.1686919188754) rotate(0 287 19.818357500758452)"><path d="M9.91 0 C199.33 0.25, 389.26 1.28, 564.09 0 M9.91 0 C217.55 1.65, 425.17 2.05, 564.09 0 M564.09 0 C570.84 1.46, 572 1.55, 574 9.91 M564.09 0 C572.98 -0.38, 575.14 4.07, 574 9.91 M574 9.91 C574.26 16.97, 573.12 20.82, 574 29.73 M574 9.91 C573.94 14.95, 573.8 20.15, 574 29.73 M574 29.73 C575.65 37.68, 569.1 40.91, 564.09 39.64 M574 29.73 C573.36 37.58, 568.64 39.87, 564.09 39.64 M564.09 39.64 C425.48 37.44, 288.72 37.61, 9.91 39.64 M564.09 39.64 C398.74 39.94, 234.28 40.11, 9.91 39.64 M9.91 39.64 C3.98 39.24, 0.44 38.07, 0 29.73 M9.91 39.64 C4.17 41.06, 0.47 34.28, 0 29.73 M0 29.73 C-0.08 20.72, -1.41 13.46, 0 9.91 M0 29.73 C-0.65 23.17, 0.17 17.07, 0 9.91 M0 9.91 C0.04 3.56, 4.02 0.65, 9.91 0 M0 9.91 C-0.87 1.24, 1.67 -0.13, 9.91 0" stroke="#f08c00" stroke-width="2" fill="none"></path></g><g transform="translate(59 84.3054069203923) rotate(0 9.647994995117188 10)"><text x="0" y="0" font-family="Virgil, Segoe UI Emoji" font-size="16px" fill="#f08c00" text-anchor="start" style="white-space: pre;" direction="ltr" dominant-baseline="text-before-edge">h2</text></g><g stroke-linecap="round" transform="translate(196 158.8054069203923) rotate(0 122 95.6232736776752)"><path d="M32 0 C101.09 0.56, 169.51 1.41, 212 0 M32 0 C99.33 -1.14, 167.76 -2.21, 212 0 M212 0 C232.41 -1.92, 242.76 9.91, 244 32 M212 0 C232.23 1.03, 246.12 9.71, 244 32 M244 32 C244.22 79.08, 241.13 123.24, 244 159.25 M244 32 C243.97 62.03, 244.24 91.42, 244 159.25 M244 159.25 C243.23 182.07, 232.65 191.26, 212 191.25 M244 159.25 C243.33 180.01, 234.53 193.52, 212 191.25 M212 191.25 C172.05 192.67, 134.76 191.54, 32 191.25 M212 191.25 C155.49 190.89, 99.22 191.69, 32 191.25 M32 191.25 C10.38 189.6, 0.83 178.78, 0 159.25 M32 191.25 C12.93 189.01, 0.51 181.26, 0 159.25 M0 159.25 C1.97 117.29, 1.27 72.45, 0 32 M0 159.25 C-0.55 114.75, 0.3 69.97, 0 32 M0 32 C0.23 10.7, 8.77 1.78, 32 0 M0 32 C0.8 8.42, 9.87 1.12, 32 0" stroke="#1971c2" stroke-width="2" fill="none"></path></g><g transform="translate(215.32204129391152 134.34486267496848) rotate(0 16.82398223876953 10)"><text x="0" y="0" font-family="Virgil, Segoe UI Emoji" font-size="16px" fill="#1971c2" text-anchor="start" style="white-space: pre;" direction="ltr" dominant-baseline="text-before-edge">form</text></g><g stroke-linecap="round" transform="translate(239 194.8054069203923) rotate(0 80.5 11.5)"><path d="M5.75 0 C41.32 -1.2, 78.54 -2.69, 155.25 0 M5.75 0 C55.89 0.73, 104.26 1.67, 155.25 0 M155.25 0 C157.3 1.26, 159.72 1.73, 161 5.75 M155.25 0 C160.74 1.28, 160.6 3.88, 161 5.75 M161 5.75 C160.74 9.07, 161.05 10.67, 161 17.25 M161 5.75 C161.65 8.95, 161.3 11.41, 161 17.25 M161 17.25 C160.46 21.25, 160.47 23.01, 155.25 23 M161 17.25 C162.6 20.97, 161.21 23.83, 155.25 23 M155.25 23 C124.87 21, 91.33 21, 5.75 23 M155.25 23 C107.3 21.48, 61.09 21.77, 5.75 23 M5.75 23 C2.56 23.22, 0.1 20.69, 0 17.25 M5.75 23 C0.31 21.12, -0.21 21.72, 0 17.25 M0 17.25 C-0.99 14.32, -0.67 11.4, 0 5.75 M0 17.25 C0 13.09, -0.53 9.14, 0 5.75 M0 5.75 C-0.69 0.14, 2.92 -1.51, 5.75 0 M0 5.75 C-0.12 2.41, 0.93 0.1, 5.75 0" stroke="#f08c00" stroke-width="2" fill="none"></path></g><g stroke-linecap="round" transform="translate(241.5 242.3054069203923) rotate(0 80.5 11.5)"><path d="M5.75 0 C40.86 -0.82, 76.56 2.09, 155.25 0 M5.75 0 C60.18 -1.02, 114.25 -1.03, 155.25 0 M155.25 0 C159.86 -1.22, 159.46 0.95, 161 5.75 M155.25 0 C159.83 -1.32, 162.02 0.15, 161 5.75 M161 5.75 C160.75 9.35, 159.95 12.92, 161 17.25 M161 5.75 C161.15 9.27, 160.85 13.24, 161 17.25 M161 17.25 C159.06 20.15, 159.39 22.82, 155.25 23 M161 17.25 C161.31 20.68, 157.25 21.73, 155.25 23 M155.25 23 C101.17 23.49, 49.06 21.88, 5.75 23 M155.25 23 C116.99 21.25, 79.25 21.61, 5.75 23 M5.75 23 C0.73 24.2, 1.92 20.85, 0 17.25 M5.75 23 C2.12 21.9, 2.04 20.68, 0 17.25 M0 17.25 C0.42 12.2, -0.81 9.51, 0 5.75 M0 17.25 C0.11 14.8, 0.51 12.17, 0 5.75 M0 5.75 C0.77 1.02, 0.11 0.43, 5.75 0 M0 5.75 C-0.74 -0.08, 0.79 -0.32, 5.75 0" stroke="#f08c00" stroke-width="2" fill="none"></path></g><g transform="translate(293 170.8054069203923) rotate(0 20.655990600585938 10)"><text x="0" y="0" font-family="Virgil, Segoe UI Emoji" font-size="16px" fill="#1e1e1e" text-anchor="start" style="white-space: pre;" direction="ltr" dominant-baseline="text-before-edge">Login:</text></g><g transform="translate(292.2800064086914 219.8054069203923) rotate(0 23.719985961914062 10)"><text x="0" y="0" font-family="Virgil, Segoe UI Emoji" font-size="16px" fill="#1e1e1e" text-anchor="start" style="white-space: pre;" direction="ltr" dominant-baseline="text-before-edge">Hasło:</text></g><g stroke-linecap="round" transform="translate(289 281.80540692039233) rotate(0 32.5 11)"><path d="M5.5 0 C20.75 2.17, 40.17 0.94, 59.5 0 M5.5 0 C19.19 0.72, 34.8 0.6, 59.5 0 M59.5 0 C61.23 -1.24, 64.85 2.26, 65 5.5 M59.5 0 C64.88 0.78, 64.48 3.23, 65 5.5 M65 5.5 C65.19 10.35, 65.07 12.95, 65 16.5 M65 5.5 C64.89 8.31, 64.41 12.31, 65 16.5 M65 16.5 C63.51 21.04, 62.51 20.01, 59.5 22 M65 16.5 C64.52 20.61, 62.84 22.95, 59.5 22 M59.5 22 C38.52 22.7, 22.32 22.28, 5.5 22 M59.5 22 C41.99 21.97, 23.89 22.74, 5.5 22 M5.5 22 C1.54 20.03, 0.67 19.83, 0 16.5 M5.5 22 C1.63 22.37, -1.86 20.31, 0 16.5 M0 16.5 C-0.19 14.69, 0.51 10.94, 0 5.5 M0 16.5 C-0.09 12.63, -0.18 8.39, 0 5.5 M0 5.5 C0.99 1.9, 3.16 1.85, 5.5 0 M0 5.5 C0.9 1.41, 2 -1.16, 5.5 0" stroke="#f08c00" stroke-width="2" fill="none"></path></g><g transform="translate(300 281.80540692039233) rotate(0 19.01618194580078 10.284606910276551)"><text x="0" y="0" font-family="Virgil, Segoe UI Emoji" font-size="16.455371056442498px" fill="#f08c00" text-anchor="start" style="white-space: pre;" direction="ltr" dominant-baseline="text-before-edge">input</text></g><g transform="translate(249 195.8054069203923) rotate(0 18.495986938476562 10)"><text x="0" y="0" font-family="Virgil, Segoe UI Emoji" font-size="16px" fill="#f08c00" text-anchor="start" style="white-space: pre;" direction="ltr" dominant-baseline="text-before-edge">input</text></g><g transform="translate(246.50401306152344 241.8054069203923) rotate(0 18.495986938476562 10)"><text x="0" y="0" font-family="Virgil, Segoe UI Emoji" font-size="16px" fill="#f08c00" text-anchor="start" style="white-space: pre;" direction="ltr" dominant-baseline="text-before-edge">input</text></g></svg>